<svg width="21" height="20" viewBox="0 0 21 20" fill="none" xmlns="http://www.w3.org/2000/svg">
<path d="M10.7319 6.66525C8.89563 6.66525 7.39712 8.16376 7.39712 10C7.39712 11.8362 8.89563 13.3348 10.7319 13.3348C12.5681 13.3348 14.0666 11.8362 14.0666 10C14.0666 8.16376 12.5681 6.66525 10.7319 6.66525ZM20.7336 10C20.7336 8.61907 20.7461 7.25064 20.6686 5.87221C20.591 4.27113 20.2258 2.85017 19.055 1.67938C17.8817 0.506085 16.4632 0.14334 14.8622 0.065788C13.4812 -0.0117644 12.1128 0.000744113 10.7344 0.000744113C9.35344 0.000744113 7.98502 -0.0117644 6.60659 0.065788C5.0055 0.14334 3.58454 0.508587 2.41375 1.67938C1.24046 2.85267 0.877715 4.27113 0.800163 5.87221C0.722611 7.25314 0.735119 8.62157 0.735119 10C0.735119 11.3784 0.722611 12.7494 0.800163 14.1278C0.877715 15.7289 1.24296 17.1498 2.41375 18.3206C3.58705 19.4939 5.0055 19.8567 6.60659 19.9342C7.98752 20.0118 9.35594 19.9993 10.7344 19.9993C12.1153 19.9993 13.4837 20.0118 14.8622 19.9342C16.4632 19.8567 17.8842 19.4914 19.055 18.3206C20.2283 17.1473 20.591 15.7289 20.6686 14.1278C20.7486 12.7494 20.7336 11.3809 20.7336 10ZM10.7319 15.131C7.89245 15.131 5.60091 12.8394 5.60091 10C5.60091 7.16058 7.89245 4.86903 10.7319 4.86903C13.5713 4.86903 15.8628 7.16058 15.8628 10C15.8628 12.8394 13.5713 15.131 10.7319 15.131ZM16.073 5.8572C15.41 5.8572 14.8747 5.32184 14.8747 4.65889C14.8747 3.99594 15.41 3.46058 16.073 3.46058C16.7359 3.46058 17.2713 3.99594 17.2713 4.65889C17.2715 4.81631 17.2406 4.97222 17.1805 5.1177C17.1203 5.26317 17.0321 5.39535 16.9208 5.50666C16.8094 5.61798 16.6773 5.70624 16.5318 5.76639C16.3863 5.82654 16.2304 5.8574 16.073 5.8572Z" fill="#272D4E"/>
</svg>
