<svg width="25" height="20" viewBox="0 0 25 20" fill="none" xmlns="http://www.w3.org/2000/svg">
<path d="M24.6183 2.37575C23.713 2.76628 22.7278 3.04735 21.713 3.15682C22.7666 2.53089 23.5556 1.54202 23.9319 0.375752C22.9433 0.963885 21.8602 1.37629 20.7308 1.59469C20.2587 1.09003 19.6878 0.687999 19.0535 0.413643C18.4193 0.139287 17.7354 -0.00151415 17.0444 1.22793e-05C14.2485 1.22793e-05 12 2.26628 12 5.04735C12 5.43788 12.0473 5.82841 12.1243 6.20415C7.93786 5.98522 4.20414 3.98522 1.72189 0.923089C1.2696 1.69562 1.03258 2.57524 1.0355 3.47042C1.0355 5.2219 1.92603 6.76628 3.28402 7.67456C2.48374 7.64305 1.7022 7.42308 1.00296 7.03255V7.09468C1.00296 9.54734 2.73668 11.5799 5.04733 12.0473C4.61348 12.16 4.16718 12.2177 3.71893 12.2189C3.39053 12.2189 3.07988 12.1864 2.76627 12.142C3.40532 14.142 5.26627 15.5947 7.48224 15.642C5.74852 17 3.57692 17.7988 1.21893 17.7988C0.795858 17.7988 0.405325 17.784 0 17.7367C2.23668 19.1716 4.89053 20 7.74852 20C17.0266 20 22.1035 12.3136 22.1035 5.64202C22.1035 5.42309 22.1035 5.20415 22.0887 4.98522C23.071 4.26628 23.9319 3.37575 24.6183 2.37575Z" fill="#272D4E"/>
</svg>
