<svg width="41" height="41" viewBox="0 0 41 41" fill="none" xmlns="http://www.w3.org/2000/svg">
<path fill-rule="evenodd" clip-rule="evenodd" d="M0 20.5C0 9.17819 9.17819 0 20.5 0C31.8218 0 41 9.17819 41 20.5C41 31.8218 31.8218 41 20.5 41C9.17819 41 0 31.8218 0 20.5ZM5.51913 14.7467C7.14548 10.5137 10.5139 7.14391 14.7469 5.51693L17.015 10.906C15.6155 11.416 14.344 12.2249 13.2889 13.2764C12.2339 14.3279 11.4207 15.5967 10.906 16.9945L5.51913 14.7467ZM14.7301 35.4744C10.5054 33.8456 7.14397 30.4806 5.51959 26.2542L10.906 24.026C11.4171 25.4201 12.2269 26.6856 13.2787 27.7338C14.3304 28.782 15.5986 29.5876 16.9945 30.094L14.7301 35.4744ZM35.4744 26.2699C33.8479 30.4883 30.4904 33.8466 26.2719 35.4737L24.0465 30.094C25.4361 29.5791 26.697 28.7678 27.7413 27.7163C28.7857 26.6649 29.5885 25.3986 30.094 24.0055L35.4744 26.2699ZM26.28 5.5273C30.4941 7.15581 33.8481 10.5127 35.4737 14.7281L30.094 16.9535C29.5805 15.572 28.7742 14.3181 27.7303 13.2777C26.6864 12.2374 25.4297 11.4353 24.0465 10.9265L26.28 5.5273ZM14.35 20.5C14.35 23.903 17.097 26.65 20.5 26.65C23.903 26.65 26.65 23.903 26.65 20.5C26.65 17.097 23.903 14.35 20.5 14.35C17.097 14.35 14.35 17.097 14.35 20.5Z" fill="white"/>
</svg>
