<svg width="41" height="41" viewBox="0 0 41 41" fill="none" xmlns="http://www.w3.org/2000/svg">
<path fill-rule="evenodd" clip-rule="evenodd" d="M0 20.5C0 9.17819 9.17819 0 20.5 0C31.8218 0 41 9.17819 41 20.5C41 31.8218 31.8218 41 20.5 41C9.17819 41 0 31.8218 0 20.5ZM36.5432 20.5C36.5432 11.6404 29.3618 4.45434 20.5 4.45434C11.6382 4.45434 4.45687 11.6404 4.45684 20.5C4.45684 29.3596 11.6382 36.5432 20.5 36.5432C29.3618 36.5432 36.5432 29.3596 36.5432 20.5ZM26.4314 14.6234V17.8214C27.7024 17.8214 28.9734 19.1006 28.9734 20.593V28.055C28.9734 29.3342 27.7024 30.6134 26.2196 30.6134H14.5687C13.2977 30.6134 12.0267 29.3342 12.0267 27.8418V20.3798C12.0267 19.1006 13.2977 17.8214 14.5687 17.8214V14.6234C14.5687 11.6386 17.5344 9.29335 20.5001 9.29335C23.4657 9.29335 26.4314 11.6386 26.4314 14.6234ZM17.3226 17.8214H23.6776V14.6234C23.6776 12.9178 22.1947 11.8518 20.5001 11.8518C18.8054 11.8518 17.3226 12.9178 17.3226 14.6234V17.8214Z" fill="white"/>
</svg>
