<svg width="41" height="41" viewBox="0 0 41 41" fill="none" xmlns="http://www.w3.org/2000/svg">
<path d="M20.5 0C9.17819 0 0 9.17819 0 20.5C0 31.8218 9.17819 41 20.5 41C31.8218 41 41 31.8218 41 20.5C41 9.17819 31.8218 0 20.5 0ZM20.5 4.45434C29.3618 4.45434 36.5432 11.6404 36.5432 20.5C36.5432 29.3596 29.3618 36.5432 20.5 36.5432C11.6382 36.5432 4.45684 29.3596 4.45684 20.5C4.45687 11.6404 11.6382 4.45434 20.5 4.45434ZM28.3552 10.7655L16.4736 22.6496L12.6198 18.7958L8.83861 22.5745L12.6924 26.4283L16.4986 30.2345L20.2773 26.4533L32.1614 14.5717L28.3552 10.7655Z" fill="white"/>
</svg>
