<svg width="21" height="20" viewBox="0 0 21 20" fill="none" xmlns="http://www.w3.org/2000/svg">
<path fill-rule="evenodd" clip-rule="evenodd" d="M2.63925 0C12.5911 0 20.6905 8.07576 20.7327 18.0176V18.0182H20.7342V19.0701H20.7224C20.6961 19.3033 20.5917 19.5209 20.4262 19.6874C20.2607 19.8539 20.0439 19.9596 19.8108 19.9875V19.9999H17.9405V19.9978C17.6875 19.9925 17.445 19.8955 17.2582 19.7247C17.0714 19.554 16.953 19.3213 16.925 19.0698H16.9132V18.0179H16.9238C16.8816 10.1756 10.4909 3.80861 2.63895 3.80861C2.63149 3.80861 2.62404 3.80807 2.61659 3.80752C2.61037 3.80707 2.60416 3.80662 2.59795 3.80648V3.82106H1.54604V3.80922C1.31275 3.78293 1.09519 3.67858 0.928667 3.5131C0.76214 3.34762 0.65642 3.13072 0.628661 2.8976H0.616211V1.02731H0.618337C0.62363 0.774312 0.720661 0.531853 0.891372 0.345054C1.06208 0.158255 1.29485 0.0398392 1.54635 0.0118429V0H2.59825V0.00212567C2.60443 0.00198836 2.61055 0.00154061 2.61669 0.00109124C2.62413 0.000546809 2.6316 0 2.63925 0ZM2.63925 7.20619C2.6316 7.20619 2.62413 7.20674 2.61669 7.20728L2.61668 7.20728C2.61054 7.20773 2.60443 7.20818 2.59825 7.20832V7.20619H1.54635V7.21804C1.29485 7.24603 1.06208 7.36445 0.891372 7.55125C0.720661 7.73805 0.62363 7.9805 0.618337 8.2335H0.616211V10.1038H0.628661C0.656472 10.3369 0.762209 10.5538 0.928726 10.7192C1.09524 10.8847 1.31277 10.9891 1.54604 11.0154V11.0273H2.59795V11.0127C2.60416 11.0128 2.61037 11.0133 2.61658 11.0137C2.62404 11.0143 2.63149 11.0148 2.63895 11.0148C6.5174 11.0148 9.67585 14.149 9.71776 18.0177H9.70774V19.0696H9.71958C9.74758 19.3211 9.86599 19.5539 10.0528 19.7246C10.2396 19.8953 10.482 19.9923 10.735 19.9976V19.9997H12.605V19.9873C12.8381 19.9595 13.055 19.8537 13.2205 19.6872C13.3859 19.5207 13.4903 19.3032 13.5166 19.0699H13.5285V18.018H13.5267C13.4851 12.0488 8.61757 7.20619 2.63925 7.20619ZM3.46569 14.5393C3.11545 14.5393 2.76865 14.6083 2.44509 14.7424C2.12154 14.8764 1.82756 15.0729 1.57996 15.3207C1.33237 15.5684 1.136 15.8624 1.00208 16.186C0.868166 16.5097 0.79932 16.8565 0.79948 17.2067C0.79948 17.5569 0.868459 17.9037 1.00248 18.2273C1.1365 18.5508 1.33294 18.8448 1.58057 19.0925C1.82821 19.3401 2.1222 19.5365 2.44575 19.6705C2.7693 19.8046 3.11608 19.8735 3.4663 19.8735C3.81651 19.8735 4.16329 19.8046 4.48684 19.6705C4.81039 19.5365 5.10438 19.3401 5.35202 19.0925C5.59965 18.8448 5.79609 18.5508 5.93011 18.2273C6.06413 17.9037 6.13311 17.5569 6.13311 17.2067C6.13327 16.8564 6.06438 16.5095 5.93039 16.1858C5.7964 15.8621 5.59992 15.5679 5.3522 15.3202C5.10447 15.0725 4.81035 14.876 4.48666 14.742C4.16296 14.608 3.81602 14.5391 3.46569 14.5393Z" fill="#272D4E"/>
</svg>
